# xmcd
#
# Track frame offsets: 
#        150
#        12736
#        26010
#        39711
#        52964
#        66190
#        78546
#        90743
#        104628
#        122718
#        144164
#        155480
#        172290
#        186970
#        200032
#        213092
#        224539
#        235927
#        251936
#        262000
#        278507
#        291227
#        303376
#        317258
#
# Disc length: 4483 seconds
#
# Revision: 0
# Processed by: cddbd v1.5.2PL0 Copyright (c) Steve Scherf et al.
# Submitted via: ExactAudioCopyFreeDBPlugin 1.0
#
DISCID=71118118
DTITLE=Roy Acuff and The Smoky Mountain Boys - The King Of Country Music
DTITLE=Various Artist - Disc 6
DYEAR=1900
DGENRE=Country
TTITLE0=That Glory Bound Train
TTITLE1=Waiting For My Call To Glory
TTITLE2=Gone, Gone, Gone (But Not Forgotten)
TTITLE3=Tell Me Now Or Tell Me Never (Take 1)
TTITLE4=Tell Me Now Or Tell Me Never (Take 2)
TTITLE5=I Talk To Myself About You (Take 1)
TTITLE6=I Talk To Myself About You (Take 2)
TTITLE7=Freight Train Blues (False Start and Take)
TTITLE8=(Our Own) Jole Blon (False Start, Breakdown and Take)
TTITLE9=(Our Own) Jole Blon (2 Breakdowns and Take)
TTITLE10=Tennessee Central (Number Nine)
TTITLE11=Wabash Cannon Ball (2 Breakdowns and Take)
TTITLE12=Wabash Cannon Ball (False Start and Take)
TTITLE13=There's A Big Rock In The Road (Take 1)
TTITLE14=There's A Big Rock In The Road (Take 2)
TTITLE15=Po' Folks (All The Time) (Take 1)
TTITLE16=Po' Folks (All The Time) (Take 2)
TTITLE17=I Wish I Had Kissed You Goodbye (Breakdown and Take)
TTITLE18=Blue Eyes Crying In The Rain (False Start and Breakdown)
TTITLE19=Blue Eyes Crying In The Rain (Breakdown and Take)
TTITLE20=Don't Wait 'Til Judgement Day
TTITLE21=The Devil's Train (Take 1)
TTITLE22=The Devil's Train (False Start and Take)
TTITLE23=Short Changed In Love (Breakdown, False Start and Take)
EXTD=
EXTT0=
EXTT1=
EXTT2=
EXTT3=
EXTT4=
EXTT5=
EXTT6=
EXTT7=
EXTT8=
EXTT9=
EXTT10=
EXTT11=
EXTT12=
EXTT13=
EXTT14=
EXTT15=
EXTT16=
EXTT17=
EXTT18=
EXTT19=
EXTT20=
EXTT21=
EXTT22=
EXTT23=
PLAYORDER=
